<?xml version="1.0" encoding="UTF-8" standalone="no"?>
<!DOCTYPE svg PUBLIC "-//W3C//DTD SVG 1.1//EN" "http://www.w3.org/Graphics/SVG/1.1/DTD/svg11.dtd">
<svg width="100%" height="100%" viewBox="0 0 350 350" version="1.1" xmlns="http://www.w3.org/2000/svg" xmlns:xlink="http://www.w3.org/1999/xlink" xml:space="preserve" xmlns:serif="http://www.serif.com/" style="fill-rule:evenodd;clip-rule:evenodd;stroke-linejoin:round;stroke-miterlimit:2;">
    <path d="M159.495,14.784L159.415,14.794C159.386,14.798 159.358,14.801 159.329,14.805L159.292,14.811C93.103,23.46 41.927,80.132 41.927,148.663L41.927,204.909C41.927,273.141 92.659,329.618 158.429,338.645C158.464,338.65 158.498,338.655 158.533,338.659C164.548,339.48 170.686,339.904 176.922,339.904C251.428,339.904 311.918,279.414 311.918,204.909L311.918,148.663C311.918,74.157 251.428,13.667 176.922,13.667C171.014,13.667 165.194,14.048 159.495,14.784ZM293.164,235.826C292.941,234.835 292.608,234.006 291.681,233.123C279.894,221.9 244.23,194.65 176.726,195.799C148.888,196.273 127.285,199.949 110.714,204.815C117.148,287.478 144.101,314.766 156.496,321.411C160.901,323.772 171.553,325.904 176.922,325.904C231.839,325.904 278.26,289.238 293.02,239.068C293.372,237.87 293.387,236.817 293.164,235.826ZM97.064,209.485C70.418,220.028 61.572,232.796 61.572,232.796C61.046,233.591 60.442,234.04 60.219,234.739C59.996,235.438 60.029,236.246 60.235,236.992C70.182,273.192 96.536,302.626 130.784,316.782C117.012,298.86 102.056,266.665 97.064,209.485ZM295.976,139.254C294.057,134.867 253.425,97.577 175.115,98.865C151.199,99.259 131.725,101.858 115.983,105.513C111.611,124.444 108.94,147.728 109.407,176.268C109.488,181.169 109.633,185.911 109.84,190.487C127.184,185.718 149.073,182.268 176.488,181.801C242.403,180.679 280.45,204.845 297.091,219.11C297.637,214.446 297.918,209.71 297.918,204.909L297.918,148.663C297.918,145.591 297.76,143.333 295.976,139.254ZM100.723,109.712C72.284,118.878 60.38,130.697 58.012,135.415C56.02,139.383 55.927,143.981 55.927,148.663C55.927,148.663 55.927,204.909 55.927,204.909C55.927,209.196 56.151,213.431 56.586,217.598C63.276,211.357 75.573,202.311 96.042,194.868C95.727,188.981 95.513,182.863 95.409,176.497C94.982,150.364 97.075,128.297 100.723,109.712ZM293.963,117.89C280.337,65.995 233.07,27.667 176.922,27.667C171.988,27.667 167.121,27.964 162.35,28.538C157.845,30.988 134.268,45.635 120.124,90.298C135.41,87.268 153.523,85.219 174.885,84.867C236.556,83.852 274.593,103.583 293.963,117.89ZM132.807,35.975C98.81,49.312 72.296,77.592 61.366,112.714C70.767,106.459 84.631,99.437 104.373,94.004C111.83,66.469 122.784,48.03 132.807,35.975Z"/>
</svg>
