<?xml version="1.0" encoding="UTF-8" standalone="no"?>
<!DOCTYPE svg PUBLIC "-//W3C//DTD SVG 1.1//EN" "http://www.w3.org/Graphics/SVG/1.1/DTD/svg11.dtd">
<svg width="100%" height="100%" viewBox="0 0 350 350" version="1.1" xmlns="http://www.w3.org/2000/svg" xmlns:xlink="http://www.w3.org/1999/xlink" xml:space="preserve" xmlns:serif="http://www.serif.com/" style="fill-rule:evenodd;clip-rule:evenodd;stroke-linejoin:round;stroke-miterlimit:1.41421;">
    <path d="M174.905,15.18L311.542,85.576L313.328,86.832C314.54,88.316 315.047,88.627 315.58,90.525C315.777,91.226 315.779,91.968 315.878,92.689L315.878,252.637C315.588,254.796 314.972,256.904 313.444,258.384C312.934,258.878 312.302,259.228 311.73,259.649L175.094,334.723C172.844,335.496 172.227,336.031 169.78,335.577C168.885,335.411 168.073,334.944 167.219,334.627L38.103,259.554C36.26,257.999 35.465,257.741 34.603,255.366C34.288,254.498 34.284,253.547 34.124,252.637L34.124,92.689C34.416,90.523 35.036,88.409 36.572,86.928C37.085,86.434 37.72,86.085 38.295,85.664L167.411,15.268C169.843,14.417 169.866,14.412 172.443,14.382C173.263,14.648 174.084,14.914 174.905,15.18ZM179.24,167.602L179.24,314.186L299.876,247.904L299.876,106.14L179.24,167.602ZM163.242,167.472C125.589,147.151 88.185,126.921 50.126,106.457L50.126,248.034L163.242,313.804L163.242,167.472ZM290.712,92.854C230.803,62.106 171.352,32.681 171.352,32.681C171.352,32.681 112.726,63.439 58.611,92.823C90.62,109.967 122.727,127.434 154.798,144.738L171.347,153.668L290.712,92.854Z" style="fill-rule:nonzero;"/>
</svg>