<?xml version="1.0" encoding="UTF-8" standalone="no"?>
<!DOCTYPE svg PUBLIC "-//W3C//DTD SVG 1.1//EN" "http://www.w3.org/Graphics/SVG/1.1/DTD/svg11.dtd">
<svg width="100%" height="100%" viewBox="0 0 350 350" version="1.1" xmlns="http://www.w3.org/2000/svg" xmlns:xlink="http://www.w3.org/1999/xlink" xml:space="preserve" xmlns:serif="http://www.serif.com/" style="fill-rule:evenodd;clip-rule:evenodd;stroke-linejoin:round;stroke-miterlimit:1.41421;">
    <path d="M38.068,92.273L38.069,91.989C38.251,70.97 53.949,52.164 70.839,40.896C100.35,21.208 137.357,14.014 173.279,13.702C174.14,13.697 175,13.696 175.861,13.697C214.4,13.898 253.888,21.438 284.52,44.709C299.223,55.88 311.633,71.571 311.927,91.691C312.008,92.527 311.991,93.373 311.937,94.221C312.073,145.174 311.933,196.128 311.932,247.082C311.932,282.493 283.244,309.554 254.363,323.556C210.194,344.969 156.542,346.577 110.484,329.816C80.935,319.063 52.943,299.763 42.125,269.925C39.511,262.714 38.123,255.064 38.068,247.396C37.948,195.773 37.919,144.149 38.067,92.525L38.065,92.286L38.068,92.273ZM296.137,129.033C291.042,134.696 285.155,139.637 279.164,143.633C249.694,163.293 212.859,170.577 176.722,170.828C135.286,171.116 91.958,163.344 60.286,135.586C58.089,133.661 55.976,131.612 53.986,129.445C53.934,168.737 53.972,208.029 54.064,247.321C54.223,269.548 70.812,289.535 88.785,301.34C121.622,322.907 163.829,328.758 203.26,322.618C229.902,318.469 256.28,308.836 276.093,289.48C287.459,278.376 295.896,263.696 295.936,247.082C296.03,208.113 296.241,168.529 296.137,129.033ZM295.937,92.223L295.934,91.9C295.706,76.157 283,62.839 270.96,54.658C243.254,35.833 207.743,29.635 174.194,29.694C140.904,29.867 106.964,35.685 79.04,54.658C77.294,55.844 75.587,57.088 73.93,58.396C63.333,66.76 54.187,77.989 54.064,92.081L54.064,92.416C54.068,92.598 54.072,92.789 54.076,92.989C54.482,108.547 67.003,121.685 79.042,129.866C107.126,148.948 142.905,155.178 177.414,154.819C210.596,154.473 244.651,148.31 272.068,129.101C284.064,120.696 295,109.273 295.881,94.074C295.917,93.463 295.932,92.852 295.934,92.24L295.937,92.223Z" style="fill-rule:nonzero;"/>
</svg>