<?xml version="1.0" encoding="UTF-8" standalone="no"?>
<!DOCTYPE svg PUBLIC "-//W3C//DTD SVG 1.1//EN" "http://www.w3.org/Graphics/SVG/1.1/DTD/svg11.dtd">
<svg width="100%" height="100%" viewBox="0 0 350 350" version="1.1" xmlns="http://www.w3.org/2000/svg" xmlns:xlink="http://www.w3.org/1999/xlink" xml:space="preserve" xmlns:serif="http://www.serif.com/" style="fill-rule:evenodd;clip-rule:evenodd;stroke-linejoin:round;stroke-miterlimit:1.41421;">
    <path d="M17.331,170.188C17.671,154.565 20.321,138.931 25.467,123.888C39.443,83.039 70.878,48.526 110.434,30.775C130.486,21.777 152.379,17.108 174.489,17.003C174.829,17.002 175.17,17.002 175.51,17.003C224.563,17.236 272.684,41.357 302.154,81.248C320.72,106.378 331.148,137.22 332.502,168.642C332.683,169.824 332.818,171.029 332.904,172.257C332.984,173.395 333,174.972 333,174.972C332.84,175.901 332.769,176.592 332.646,177.204C332.431,199.876 327.466,222.607 317.403,243.48C296.173,287.513 253.499,320.687 205.37,330.075C195.917,331.919 186.314,332.844 176.706,332.887C175.977,333.008 175.109,333.012 173.873,332.993C172.679,332.968 171.491,332.899 170.31,332.787C131.819,331.402 93.791,315.995 65.669,289.021C35.724,260.3 18.426,219.429 17.347,177.796C17.005,176.88 16.98,175.889 17.01,174.175C17.043,172.833 17.151,171.504 17.331,170.188ZM316.572,170.642C314.72,161.127 307.209,153.065 299.971,147.423C281.127,132.732 257.225,125.45 233.49,120.757C191.222,112.401 146.637,112.79 105.732,123.074C103.653,133.369 102.293,143.816 101.475,154.149C97.989,198.156 103.751,244.261 126.397,281.85C136.937,299.346 152.197,315.739 172.632,316.934C173.368,316.977 174.105,316.996 174.842,316.999L174.854,317.001C175.056,317.001 175.257,317.001 175.459,317.001C228.402,316.832 280.189,284.583 303.365,235.756C312.965,215.532 317.33,193.042 316.572,170.642ZM88.186,128.166C70.784,133.859 53.624,141.356 41.291,155.599C37.267,160.247 34.032,165.848 33.205,172.037C32.723,202.631 41.937,233.518 60.206,258.559C76.592,281.019 99.835,298.252 125.946,308.007C122.334,304.081 119.084,299.928 116.264,295.73C97.99,268.521 89.255,235.524 86.003,202.739C83.548,177.995 83.984,152.58 88.186,128.166ZM125.169,42.51C86.865,57.341 54.472,88.528 40.602,129.066C39.774,131.487 39.016,133.931 38.328,136.394C40.626,134.447 42.996,132.654 45.375,131.034C59.517,121.397 75.402,114.666 92.097,109.917C96.774,91.831 103.753,74.566 113.415,58.856C116.915,53.167 120.81,47.614 125.169,42.51ZM174.757,32.999L174.337,33.006C158.022,33.326 143.503,44.944 133.899,57.307C122.836,71.549 115.196,88.109 110.042,105.587C119.116,103.753 128.325,102.383 137.53,101.34C150.297,99.894 163.111,99.241 175.993,99.26C214.687,99.426 254.103,104.882 288.932,121.981C296.617,125.754 304.316,130.185 311.08,135.488C306.243,118.46 298.273,102.259 287.226,88.031C260.745,53.923 218.589,32.999 174.757,32.999Z" style="fill-rule:nonzero;"/>
</svg>