<?xml version="1.0" encoding="UTF-8" standalone="no"?>
<!DOCTYPE svg PUBLIC "-//W3C//DTD SVG 1.1//EN" "http://www.w3.org/Graphics/SVG/1.1/DTD/svg11.dtd">
<svg width="100%" height="100%" viewBox="0 0 600 600" version="1.1" xmlns="http://www.w3.org/2000/svg" xmlns:xlink="http://www.w3.org/1999/xlink" xml:space="preserve" xmlns:serif="http://www.serif.com/" style="fill-rule:evenodd;clip-rule:evenodd;stroke-linejoin:round;stroke-miterlimit:2;">
    <g transform="matrix(1.06307,0,0,1.06307,-18.9204,-18.9204)">
        <path fill='grey' d="M270.023,552.079C270.023,535.451 256.551,521.956 239.911,521.956C223.283,521.956 209.788,535.451 209.788,552.079C209.788,568.73 223.283,582.202 239.911,582.202C256.551,582.202 270.023,568.73 270.023,552.079ZM417.923,524.357C417.923,507.729 404.463,494.234 387.811,494.234C371.172,494.234 357.689,507.729 357.689,524.357C357.689,540.986 371.172,554.458 387.811,554.458C404.463,554.458 417.923,540.986 417.923,524.357ZM175.683,228.345L120.986,256.103L120.986,483.35L209.431,483.35C214.507,428.512 218.718,315.679 211.384,283.861C183.743,262.747 175.683,228.345 175.683,228.345ZM401.878,222.742C394.625,251.459 380.635,270.83 365.042,284.821C395.058,307.186 424.068,350.362 424.068,395.795L424.068,483.35L487.374,483.35L487.374,221.713C467.465,226.906 435.426,235.329 401.878,222.742ZM304.168,320.907C290.518,314.45 273.732,314.216 273.732,314.216L273.732,483.35L362.668,483.35L362.668,407.083C362.668,347.636 317.059,327.013 304.168,320.907ZM98.09,250.737C98.09,234.108 84.618,220.614 67.978,220.614C51.35,220.614 37.867,234.108 37.867,250.737C37.867,267.365 51.35,280.86 67.978,280.86C84.618,280.86 98.09,267.365 98.09,250.737ZM562.133,187.896C562.133,171.245 548.673,157.773 532.01,157.773C515.371,157.773 501.899,171.245 501.899,187.896C501.899,204.524 515.371,217.996 532.01,217.996C548.673,217.996 562.133,204.524 562.133,187.896ZM206.881,115.043L120.986,115.043L120.986,195.347L176.233,165.951C176.233,165.951 184.831,132.04 206.881,115.043ZM369.709,115.043C382.787,128.823 392.999,143.878 398.918,162.173C428.419,182.14 466.799,172.186 487.374,169.214L487.374,115.043L369.709,115.043ZM326.809,65.868C326.809,39.319 305.277,17.798 278.727,17.798C252.189,17.798 230.691,39.319 230.691,65.868C230.691,92.406 252.189,113.939 278.727,113.939C305.277,113.939 326.809,92.406 326.809,65.868Z" style="fill-rule:nonzero;"/>
    </g>
</svg>
